<svg width="787" height="190" viewBox="0 0 787 190" fill="none" xmlns="http://www.w3.org/2000/svg">
<rect width="787" height="190" rx="95" fill="currentColor"/>
<path d="M133.684 47.4893C147.042 47.4893 156.789 50.2269 162.925 55.7021C169.061 61.1774 172.129 68.8475 172.129 78.7124C172.129 83.1965 171.421 87.4681 170.005 91.5273C168.636 95.5394 166.37 99.103 163.208 102.218C160.046 105.286 155.868 107.717 150.676 109.511C145.531 111.304 139.183 112.201 131.631 112.201H120.586V151H103.594V47.4893H133.684ZM132.551 61.5786H120.586V98.041H129.861C135.194 98.041 139.726 97.4274 143.455 96.2002C147.183 94.9258 150.015 92.9198 151.951 90.1821C153.886 87.4445 154.854 83.8337 154.854 79.3496C154.854 73.3551 153.036 68.8947 149.402 65.9683C145.815 63.0418 140.198 61.5786 132.551 61.5786ZM207.812 151H191.104V40.834H207.812V151ZM262.329 71.1367C272.241 71.1367 279.722 73.3315 284.773 77.7212C289.871 82.1108 292.419 88.9549 292.419 98.2534V151H280.596L277.41 139.884H276.843C274.625 142.716 272.336 145.053 269.976 146.894C267.616 148.734 264.878 150.103 261.763 151C258.695 151.944 254.942 152.416 250.505 152.416C245.833 152.416 241.655 151.566 237.974 149.867C234.292 148.121 231.389 145.478 229.265 141.938C227.141 138.397 226.079 133.913 226.079 128.485C226.079 120.414 229.076 114.349 235.071 110.29C241.112 106.23 250.222 103.988 262.4 103.563L275.994 103.068V98.9614C275.994 93.5334 274.719 89.6629 272.17 87.3501C269.669 85.0373 266.129 83.8809 261.55 83.8809C257.633 83.8809 253.833 84.4473 250.151 85.5801C246.47 86.7129 242.882 88.1053 239.39 89.7573L234.009 78.0044C237.832 75.9748 242.174 74.3228 247.036 73.0483C251.945 71.7739 257.043 71.1367 262.329 71.1367ZM275.923 113.546L265.798 113.9C257.491 114.184 251.662 115.6 248.311 118.148C244.959 120.697 243.284 124.19 243.284 128.627C243.284 132.497 244.44 135.329 246.753 137.123C249.066 138.869 252.11 139.743 255.886 139.743C261.645 139.743 266.412 138.114 270.188 134.857C274.011 131.553 275.923 126.715 275.923 120.343V113.546ZM356.565 71.1367C365.391 71.1367 372.259 73.4259 377.168 78.0044C382.124 82.5356 384.602 89.8281 384.602 99.8818V151H367.964V102.997C367.964 96.9082 366.713 92.3534 364.211 89.3325C361.71 86.2645 357.839 84.7305 352.6 84.7305C345.001 84.7305 339.714 87.0669 336.741 91.7397C333.814 96.4126 332.351 103.186 332.351 112.06V151H315.713V72.6235H328.669L331.006 83.2437H331.926C333.625 80.506 335.726 78.264 338.228 76.5176C340.776 74.724 343.608 73.3787 346.724 72.4819C349.886 71.5851 353.167 71.1367 356.565 71.1367ZM440.535 45.9316C445.868 45.9316 450.541 46.8049 454.553 48.5513C458.612 50.2977 461.775 52.8465 464.041 56.1978C466.306 59.5018 467.439 63.5374 467.439 68.3047C467.439 74.6768 465.457 80.0576 461.492 84.4473C457.527 88.8369 452.524 92.7546 446.482 96.2002L470.908 119.989C473.221 116.827 475.133 113.358 476.643 109.582C478.153 105.758 479.451 101.746 480.537 97.5454H497.742C496.278 103.398 494.249 109.18 491.653 114.892C489.057 120.556 485.776 125.748 481.812 130.468L502.839 151H481.528L471.05 140.734C468.123 143.094 464.985 145.147 461.633 146.894C458.329 148.64 454.718 150.009 450.801 151C446.883 151.944 442.564 152.416 437.844 152.416C430.623 152.416 424.392 151.26 419.153 148.947C413.914 146.634 409.878 143.33 407.046 139.035C404.261 134.692 402.869 129.547 402.869 123.6C402.869 118.644 403.695 114.396 405.347 110.856C407.046 107.269 409.453 104.13 412.568 101.439C415.684 98.7018 419.412 96.1058 423.755 93.6514C421.395 90.9609 419.342 88.3413 417.595 85.7925C415.849 83.2437 414.504 80.624 413.56 77.9336C412.663 75.196 412.214 72.2695 412.214 69.1543C412.214 64.3398 413.394 60.2098 415.754 56.7642C418.114 53.2713 421.418 50.6045 425.667 48.7637C429.915 46.8757 434.871 45.9316 440.535 45.9316ZM433.596 103.776C430.859 105.522 428.499 107.292 426.516 109.086C424.534 110.832 423 112.768 421.914 114.892C420.876 117.016 420.356 119.494 420.356 122.326C420.356 127.187 422.056 131.034 425.454 133.866C428.9 136.698 433.337 138.114 438.765 138.114C443.532 138.114 447.709 137.406 451.296 135.99C454.931 134.527 458.093 132.71 460.784 130.539L433.596 103.776ZM440.251 59.1006C436.9 59.1006 433.997 59.9738 431.543 61.7202C429.136 63.4666 427.932 66.1807 427.932 69.8623C427.932 72.8359 428.711 75.6444 430.269 78.2876C431.873 80.8836 434.092 83.6921 436.924 86.7129C441.88 83.9753 445.562 81.2848 447.969 78.6416C450.423 75.9984 451.65 72.9303 451.65 69.4375C451.65 66.1335 450.541 63.5846 448.323 61.791C446.104 59.9974 443.414 59.1006 440.251 59.1006ZM558.56 94.7842H597.217V146.752C591.789 148.546 586.172 149.938 580.366 150.929C574.561 151.92 568.047 152.416 560.825 152.416C550.299 152.416 541.379 150.339 534.062 146.186C526.794 141.985 521.271 135.919 517.495 127.99C513.719 120.013 511.831 110.408 511.831 99.1738C511.831 88.3649 513.931 78.9956 518.132 71.0659C522.333 63.089 528.446 56.9294 536.47 52.5869C544.494 48.1973 554.217 46.0024 565.64 46.0024C571.257 46.0024 576.685 46.5688 581.924 47.7017C587.21 48.7873 592.048 50.2977 596.438 52.2329L590.491 66.2515C586.998 64.5994 583.08 63.207 578.738 62.0742C574.395 60.9414 569.888 60.375 565.215 60.375C557.804 60.375 551.409 61.9798 546.028 65.1895C540.694 68.3991 536.588 72.9303 533.708 78.7832C530.829 84.5889 529.39 91.4565 529.39 99.3862C529.39 107.08 530.546 113.83 532.859 119.635C535.172 125.441 538.783 129.972 543.691 133.229C548.647 136.439 555.043 138.043 562.878 138.043C566.796 138.043 570.124 137.831 572.861 137.406C575.599 136.981 578.124 136.509 580.437 135.99V109.298H558.56V94.7842ZM689.683 111.635C689.683 118.148 688.833 123.931 687.134 128.981C685.435 134.031 682.957 138.303 679.7 141.796C676.443 145.242 672.525 147.885 667.947 149.726C663.368 151.519 658.2 152.416 652.441 152.416C647.061 152.416 642.128 151.519 637.644 149.726C633.16 147.885 629.266 145.242 625.962 141.796C622.705 138.303 620.18 134.031 618.386 128.981C616.593 123.931 615.696 118.148 615.696 111.635C615.696 102.997 617.183 95.681 620.156 89.6865C623.177 83.6449 627.472 79.0428 633.042 75.8804C638.612 72.7179 645.243 71.1367 652.937 71.1367C660.159 71.1367 666.531 72.7179 672.053 75.8804C677.576 79.0428 681.895 83.6449 685.01 89.6865C688.125 95.7282 689.683 103.044 689.683 111.635ZM632.83 111.635C632.83 117.346 633.514 122.231 634.883 126.291C636.299 130.35 638.47 133.465 641.396 135.636C644.323 137.76 648.099 138.822 652.725 138.822C657.35 138.822 661.126 137.76 664.053 135.636C666.979 133.465 669.127 130.35 670.496 126.291C671.864 122.231 672.549 117.346 672.549 111.635C672.549 105.924 671.864 101.085 670.496 97.1206C669.127 93.1086 666.979 90.0641 664.053 87.9873C661.126 85.8633 657.327 84.8013 652.654 84.8013C645.763 84.8013 640.736 87.1141 637.573 91.7397C634.411 96.3654 632.83 102.997 632.83 111.635Z" fill="#F5F5F5"/>
</svg>
