<svg width="214" height="41" viewBox="0 0 214 41" fill="none" xmlns="http://www.w3.org/2000/svg">
<path d="M11.5635 2.41695C16.4116 2.41695 19.9491 3.41115 22.1762 5.39957C24.4032 7.38798 25.5167 10.1735 25.5167 13.756C25.5167 15.3845 25.2597 16.9358 24.7458 18.41C24.249 19.867 23.4267 21.1612 22.2789 22.2925C21.1312 23.4067 19.6151 24.2895 17.7307 24.9409C15.8634 25.5922 13.5593 25.9179 10.8183 25.9179H6.80971V40.0082H0.642578V2.41695H11.5635ZM11.1524 7.53368H6.80971V20.7755H10.1759C12.1117 20.7755 13.7563 20.5526 15.1096 20.107C16.463 19.6441 17.4908 18.9156 18.1932 17.9214C18.8956 16.9272 19.2468 15.6159 19.2468 13.9874C19.2468 11.8105 18.5872 10.1906 17.2681 9.12784C15.9662 8.06507 13.9276 7.53368 11.1524 7.53368Z" fill="currentColor"/>
<path d="M38.4677 40.0082H32.4033V0H38.4677V40.0082Z" fill="currentColor"/>
<path d="M58.2539 11.0048C61.8514 11.0048 64.5666 11.8019 66.3997 13.3961C68.2498 14.9902 69.1749 17.4757 69.1749 20.8526V40.0082H64.8836L63.7272 35.9714H63.5217C62.7165 36.9999 61.8857 37.8484 61.0291 38.5169C60.1726 39.1854 59.179 39.6825 58.0483 40.0082C56.9348 40.351 55.5729 40.5225 53.9626 40.5225C52.2666 40.5225 50.7505 40.2139 49.4143 39.5968C48.0781 38.9626 47.0246 38.0027 46.2537 36.7171C45.4828 35.4314 45.0973 33.803 45.0973 31.8317C45.0973 28.9005 46.1852 26.6979 48.3608 25.2237C50.5535 23.7495 53.8598 22.9353 58.2796 22.781L63.2133 22.601V21.1097C63.2133 19.1385 62.7508 17.7329 61.8257 16.8929C60.9178 16.053 59.6329 15.633 57.9712 15.633C56.5494 15.633 55.1703 15.8387 53.8341 16.2501C52.4979 16.6615 51.1959 17.1672 49.9283 17.7671L47.9753 13.4989C49.3629 12.7618 50.939 12.1619 52.7035 11.6991C54.4851 11.2362 56.3352 11.0048 58.2539 11.0048ZM63.1876 26.4065L59.513 26.535C56.498 26.6379 54.3823 27.1521 53.166 28.0777C51.9497 29.0034 51.3416 30.2719 51.3416 31.8832C51.3416 33.2888 51.7613 34.3172 52.6007 34.9686C53.4401 35.6029 54.545 35.92 55.9155 35.92C58.0055 35.92 59.7357 35.3286 61.1062 34.1458C62.4938 32.9459 63.1876 31.1889 63.1876 28.8748V26.4065Z" fill="currentColor"/>
<path d="M92.4558 11.0048C95.6593 11.0048 98.1518 11.8362 99.9334 13.4989C101.732 15.1445 102.632 17.7929 102.632 21.444V40.0082H96.5929V22.5753C96.5929 20.3641 96.1389 18.7099 95.231 17.6129C94.3231 16.4987 92.9183 15.9416 91.0168 15.9416C88.2587 15.9416 86.34 16.7901 85.2608 18.4871C84.1987 20.1841 83.6676 22.6439 83.6676 25.8665V40.0082H77.629V11.5448H82.3314L83.1794 15.4016H83.5135C84.1302 14.4074 84.8925 13.5932 85.8004 12.959C86.7255 12.3076 87.7534 11.8191 88.884 11.4934C90.0318 11.1677 91.2224 11.0048 92.4558 11.0048Z" fill="currentColor"/>
<path d="M122.932 1.85128C124.868 1.85128 126.563 2.1684 128.02 2.80263C129.493 3.43687 130.641 4.36251 131.463 5.57955C132.285 6.77946 132.696 8.24505 132.696 9.97634C132.696 12.2904 131.977 14.2446 130.538 15.8387C129.099 17.4329 127.283 18.8556 125.09 20.107L133.955 28.7463C134.795 27.5978 135.489 26.3379 136.037 24.9666C136.585 23.5781 137.056 22.1211 137.45 20.5955H143.694C143.163 22.721 142.427 24.8209 141.485 26.895C140.542 28.952 139.352 30.8375 137.913 32.5517L145.545 40.0082H137.81L134.007 36.2799C132.945 37.137 131.806 37.8827 130.589 38.5169C129.39 39.1511 128.08 39.6482 126.658 40.0082C125.236 40.351 123.668 40.5225 121.955 40.5225C119.334 40.5225 117.073 40.1025 115.171 39.2626C113.27 38.4226 111.805 37.2227 110.777 35.6629C109.767 34.0858 109.261 32.2174 109.261 30.0576C109.261 28.2577 109.561 26.715 110.161 25.4294C110.777 24.1266 111.651 22.9867 112.782 22.0097C113.912 21.0155 115.266 20.0727 116.842 19.1813C115.985 18.2043 115.24 17.2529 114.606 16.3273C113.972 15.4016 113.484 14.4503 113.141 13.4732C112.816 12.479 112.653 11.4162 112.653 10.2849C112.653 8.53646 113.081 7.03658 113.938 5.78525C114.795 4.51678 115.994 3.54829 117.535 2.87977C119.077 2.19411 120.876 1.85128 122.932 1.85128ZM120.413 22.8582C119.42 23.4924 118.563 24.1352 117.844 24.7866C117.124 25.4208 116.568 26.1236 116.174 26.895C115.797 27.6664 115.608 28.5663 115.608 29.5948C115.608 31.3603 116.225 32.7574 117.458 33.7859C118.709 34.8143 120.319 35.3286 122.289 35.3286C124.02 35.3286 125.536 35.0715 126.838 34.5572C128.157 34.0258 129.304 33.3659 130.281 32.5774L120.413 22.8582ZM122.829 6.63375C121.613 6.63375 120.559 6.95087 119.668 7.58511C118.795 8.21934 118.358 9.20498 118.358 10.542C118.358 11.6219 118.64 12.6418 119.206 13.6018C119.788 14.5445 120.593 15.5645 121.621 16.6615C123.42 15.6673 124.756 14.6902 125.63 13.7303C126.521 12.7704 126.966 11.6562 126.966 10.3877C126.966 9.18783 126.563 8.26219 125.758 7.61082C124.953 6.95944 123.977 6.63375 122.829 6.63375Z" fill="currentColor"/>
<path d="M165.768 19.5927H179.798V38.4655C177.828 39.1169 175.789 39.6225 173.682 39.9825C171.575 40.3425 169.211 40.5225 166.59 40.5225C162.77 40.5225 159.532 39.7682 156.877 38.2598C154.238 36.7342 152.234 34.5315 150.864 31.6517C149.493 28.7548 148.808 25.2665 148.808 21.1869C148.808 17.2615 149.57 13.8589 151.095 10.9791C152.62 8.08221 154.838 5.84524 157.75 4.26823C160.663 2.67407 164.192 1.87699 168.337 1.87699C170.376 1.87699 172.346 2.08269 174.247 2.49409C176.166 2.88834 177.922 3.43687 179.515 4.13967L177.357 9.23069C176.089 8.63074 174.667 8.12506 173.091 7.71367C171.515 7.30227 169.879 7.09657 168.183 7.09657C165.494 7.09657 163.172 7.67938 161.219 8.845C159.284 10.0106 157.793 11.6562 156.748 13.7818C155.703 15.8902 155.181 18.3842 155.181 21.264C155.181 24.0581 155.6 26.5093 156.44 28.6177C157.279 30.7261 158.59 32.3717 160.371 33.5545C162.17 34.7201 164.491 35.3029 167.335 35.3029C168.757 35.3029 169.965 35.2257 170.958 35.0715C171.952 34.9172 172.868 34.7458 173.708 34.5572V24.8637H165.768V19.5927Z" fill="currentColor"/>
<path d="M213.357 25.7122C213.357 28.0777 213.049 30.1776 212.432 32.0117C211.816 33.8459 210.916 35.3972 209.734 36.6656C208.552 37.917 207.13 38.8769 205.469 39.5454C203.807 40.1968 201.931 40.5225 199.841 40.5225C197.888 40.5225 196.098 40.1968 194.47 39.5454C192.843 38.8769 191.43 37.917 190.231 36.6656C189.049 35.3972 188.132 33.8459 187.481 32.0117C186.83 30.1776 186.505 28.0777 186.505 25.7122C186.505 22.5753 187.044 19.9184 188.123 17.7414C189.22 15.5473 190.779 13.876 192.8 12.7275C194.822 11.5791 197.229 11.0048 200.021 11.0048C202.642 11.0048 204.955 11.5791 206.959 12.7275C208.963 13.876 210.531 15.5473 211.661 17.7414C212.792 19.9355 213.357 22.5925 213.357 25.7122ZM192.723 25.7122C192.723 27.7863 192.972 29.5605 193.468 31.0347C193.982 32.5088 194.77 33.6402 195.832 34.4287C196.895 35.2 198.265 35.5857 199.944 35.5857C201.623 35.5857 202.993 35.2 204.055 34.4287C205.117 33.6402 205.897 32.5088 206.394 31.0347C206.89 29.5605 207.139 27.7863 207.139 25.7122C207.139 23.6381 206.89 21.8811 206.394 20.4412C205.897 18.9842 205.117 17.8786 204.055 17.1243C202.993 16.353 201.614 15.9673 199.918 15.9673C197.417 15.9673 195.593 16.8072 194.445 18.4871C193.297 20.167 192.723 22.5753 192.723 25.7122Z" fill="currentColor"/>
</svg>
