<svg width="16" height="16" viewBox="0 0 16 16" fill="none" xmlns="http://www.w3.org/2000/svg">
    <mask id="path-1-inside-1_85_13875" fill="white">
        <path
            d="M7.99652 11.5271C8.47688 11.5271 8.9307 11.435 9.35799 11.2508C9.78523 11.0665 10.1605 10.8121 10.4838 10.4873C10.8072 10.1626 11.0612 9.78832 11.246 9.36457C11.4307 8.94082 11.5231 8.48712 11.5231 8.00347C11.5231 7.5198 11.4307 7.06494 11.246 6.63887C11.0612 6.2128 10.8072 5.8374 10.4838 5.51266C10.1605 5.18792 9.78523 4.93343 9.35799 4.74919C8.9307 4.56494 8.47688 4.47282 7.99652 4.47282C7.51154 4.47282 7.05658 4.56494 6.63163 4.74919C6.20669 4.93343 5.8314 5.18792 5.50577 5.51266C5.18013 5.8374 4.92494 6.2128 4.74018 6.63887C4.55542 7.06494 4.46305 7.5198 4.46305 8.00347C4.46305 8.48712 4.55542 8.94082 4.74018 9.36457C4.92494 9.78832 5.18013 10.1626 5.50577 10.4873C5.8314 10.8121 6.20669 11.0665 6.63163 11.2508C7.05658 11.435 7.51154 11.5271 7.99652 11.5271ZM7.99652 10.47C7.54387 10.47 7.13048 10.3584 6.75635 10.135C6.38221 9.91154 6.08198 9.61328 5.85565 9.24019C5.62932 8.8671 5.51616 8.45486 5.51616 8.00347C5.51616 7.55205 5.62932 7.13979 5.85565 6.76669C6.08198 6.39359 6.38221 6.09419 6.75635 5.86849C7.13048 5.64279 7.54387 5.52994 7.99652 5.52994C8.44916 5.52994 8.86257 5.64279 9.23674 5.86849C9.61087 6.09419 9.90993 6.39359 10.1339 6.76669C10.3579 7.13979 10.4699 7.55205 10.4699 8.00347C10.4699 8.45486 10.3579 8.8671 10.1339 9.24019C9.90993 9.61328 9.61087 9.91154 9.23674 10.135C8.86257 10.3584 8.44916 10.47 7.99652 10.47ZM8.60624 1.10801C8.60624 0.942192 8.5462 0.799401 8.42611 0.67964C8.30602 0.55988 8.16282 0.5 7.99652 0.5C7.83486 0.5 7.69398 0.55988 7.57389 0.67964C7.4538 0.799401 7.39376 0.942192 7.39376 1.10801V2.55896C7.39376 2.72017 7.4538 2.86066 7.57389 2.98042C7.69398 3.10018 7.83486 3.16006 7.99652 3.16006C8.16282 3.16006 8.30602 3.10018 8.42611 2.98042C8.5462 2.86066 8.60624 2.72017 8.60624 2.55896V1.10801ZM11.4191 3.74044C11.3037 3.85559 11.246 3.99723 11.246 4.16535C11.246 4.33348 11.3037 4.47512 11.4191 4.59028C11.5346 4.70543 11.6767 4.76416 11.8452 4.76646C12.0139 4.76876 12.1582 4.71004 12.2783 4.59028L13.3106 3.5608C13.4261 3.44564 13.4838 3.30285 13.4838 3.13242C13.4838 2.962 13.4261 2.81921 13.3106 2.70405C13.1951 2.58889 13.0543 2.53132 12.888 2.53132C12.7217 2.53132 12.5808 2.58889 12.4653 2.70405L11.4191 3.74044ZM14.8903 8.60456C15.0566 8.60456 15.1998 8.54469 15.3199 8.42493C15.44 8.30517 15.5 8.16468 15.5 8.00347C15.5 7.83763 15.44 7.69598 15.3199 7.57854C15.1998 7.46107 15.0566 7.40234 14.8903 7.40234H13.4423C13.2806 7.40234 13.1397 7.46107 13.0196 7.57854C12.8995 7.69598 12.8395 7.83763 12.8395 8.00347C12.8395 8.16468 12.8995 8.30517 13.0196 8.42493C13.1397 8.54469 13.2806 8.60456 13.4423 8.60456H14.8903ZM12.2714 11.4236C12.1559 11.3084 12.0139 11.2508 11.8452 11.2508C11.6767 11.2508 11.5346 11.3084 11.4191 11.4236C11.3037 11.5387 11.246 11.6792 11.246 11.845C11.246 12.0108 11.3037 12.1536 11.4191 12.2733L12.4653 13.3098C12.5808 13.4249 12.7217 13.4813 12.888 13.479C13.0543 13.4767 13.1951 13.418 13.3106 13.3028C13.4261 13.1877 13.4838 13.0461 13.4838 12.8779C13.4838 12.7098 13.4261 12.5682 13.3106 12.453L12.2714 11.4236ZM8.60624 13.4479C8.60624 13.2821 8.5462 13.1393 8.42611 13.0195C8.30602 12.8998 8.16282 12.8399 7.99652 12.8399C7.83486 12.8399 7.69398 12.8998 7.57389 13.0195C7.4538 13.1393 7.39376 13.2821 7.39376 13.4479V14.8989C7.39376 15.0601 7.4538 15.2006 7.57389 15.3204C7.69398 15.4401 7.83486 15.5 7.99652 15.5C8.16282 15.5 8.30602 15.4401 8.42611 15.3204C8.5462 15.2006 8.60624 15.0601 8.60624 14.8989V13.4479ZM2.68244 12.4461C2.56697 12.5612 2.50923 12.7029 2.50923 12.871C2.50923 13.0391 2.56466 13.1808 2.67552 13.2959C2.79099 13.4111 2.93418 13.4698 3.10508 13.4721C3.27598 13.4744 3.41916 13.418 3.53464 13.3028L4.56697 12.2733C4.68244 12.1582 4.74133 12.0166 4.74365 11.8484C4.74596 11.6803 4.68937 11.5387 4.5739 11.4236C4.45843 11.3084 4.31524 11.2508 4.14434 11.2508C3.97344 11.2508 3.83025 11.3084 3.71478 11.4236L2.68244 12.4461ZM1.10277 7.40234C0.941108 7.40234 0.80023 7.46107 0.680138 7.57854C0.560046 7.69598 0.5 7.83763 0.5 8.00347C0.5 8.16468 0.560046 8.30517 0.680138 8.42493C0.80023 8.54469 0.941108 8.60456 1.10277 8.60456H2.5508C2.71709 8.60456 2.86028 8.54469 2.98036 8.42493C3.10046 8.30517 3.16051 8.16468 3.16051 8.00347C3.16051 7.83763 3.10046 7.69598 2.98036 7.57854C2.86028 7.46107 2.71709 7.40234 2.5508 7.40234H1.10277ZM3.71478 4.59028C3.83025 4.70543 3.97228 4.76301 4.14088 4.76301C4.30947 4.76301 4.4515 4.70543 4.56697 4.59028C4.68244 4.47973 4.74133 4.33809 4.74365 4.16535C4.74596 3.99262 4.68937 3.85098 4.5739 3.74044L3.54157 2.70405C3.43071 2.5935 3.29099 2.53708 3.1224 2.53478C2.95381 2.53247 2.80947 2.58889 2.68938 2.70405C2.5739 2.81921 2.51617 2.96085 2.51617 3.12897C2.51617 3.2971 2.57159 3.43874 2.68244 3.55389L3.71478 4.59028Z" />
    </mask>
    <path
        d="M7.99652 11.5271C8.47688 11.5271 8.9307 11.435 9.35799 11.2508C9.78523 11.0665 10.1605 10.8121 10.4838 10.4873C10.8072 10.1626 11.0612 9.78832 11.246 9.36457C11.4307 8.94082 11.5231 8.48712 11.5231 8.00347C11.5231 7.5198 11.4307 7.06494 11.246 6.63887C11.0612 6.2128 10.8072 5.8374 10.4838 5.51266C10.1605 5.18792 9.78523 4.93343 9.35799 4.74919C8.9307 4.56494 8.47688 4.47282 7.99652 4.47282C7.51154 4.47282 7.05658 4.56494 6.63163 4.74919C6.20669 4.93343 5.8314 5.18792 5.50577 5.51266C5.18013 5.8374 4.92494 6.2128 4.74018 6.63887C4.55542 7.06494 4.46305 7.5198 4.46305 8.00347C4.46305 8.48712 4.55542 8.94082 4.74018 9.36457C4.92494 9.78832 5.18013 10.1626 5.50577 10.4873C5.8314 10.8121 6.20669 11.0665 6.63163 11.2508C7.05658 11.435 7.51154 11.5271 7.99652 11.5271ZM7.99652 10.47C7.54387 10.47 7.13048 10.3584 6.75635 10.135C6.38221 9.91154 6.08198 9.61328 5.85565 9.24019C5.62932 8.8671 5.51616 8.45486 5.51616 8.00347C5.51616 7.55205 5.62932 7.13979 5.85565 6.76669C6.08198 6.39359 6.38221 6.09419 6.75635 5.86849C7.13048 5.64279 7.54387 5.52994 7.99652 5.52994C8.44916 5.52994 8.86257 5.64279 9.23674 5.86849C9.61087 6.09419 9.90993 6.39359 10.1339 6.76669C10.3579 7.13979 10.4699 7.55205 10.4699 8.00347C10.4699 8.45486 10.3579 8.8671 10.1339 9.24019C9.90993 9.61328 9.61087 9.91154 9.23674 10.135C8.86257 10.3584 8.44916 10.47 7.99652 10.47ZM8.60624 1.10801C8.60624 0.942192 8.5462 0.799401 8.42611 0.67964C8.30602 0.55988 8.16282 0.5 7.99652 0.5C7.83486 0.5 7.69398 0.55988 7.57389 0.67964C7.4538 0.799401 7.39376 0.942192 7.39376 1.10801V2.55896C7.39376 2.72017 7.4538 2.86066 7.57389 2.98042C7.69398 3.10018 7.83486 3.16006 7.99652 3.16006C8.16282 3.16006 8.30602 3.10018 8.42611 2.98042C8.5462 2.86066 8.60624 2.72017 8.60624 2.55896V1.10801ZM11.4191 3.74044C11.3037 3.85559 11.246 3.99723 11.246 4.16535C11.246 4.33348 11.3037 4.47512 11.4191 4.59028C11.5346 4.70543 11.6767 4.76416 11.8452 4.76646C12.0139 4.76876 12.1582 4.71004 12.2783 4.59028L13.3106 3.5608C13.4261 3.44564 13.4838 3.30285 13.4838 3.13242C13.4838 2.962 13.4261 2.81921 13.3106 2.70405C13.1951 2.58889 13.0543 2.53132 12.888 2.53132C12.7217 2.53132 12.5808 2.58889 12.4653 2.70405L11.4191 3.74044ZM14.8903 8.60456C15.0566 8.60456 15.1998 8.54469 15.3199 8.42493C15.44 8.30517 15.5 8.16468 15.5 8.00347C15.5 7.83763 15.44 7.69598 15.3199 7.57854C15.1998 7.46107 15.0566 7.40234 14.8903 7.40234H13.4423C13.2806 7.40234 13.1397 7.46107 13.0196 7.57854C12.8995 7.69598 12.8395 7.83763 12.8395 8.00347C12.8395 8.16468 12.8995 8.30517 13.0196 8.42493C13.1397 8.54469 13.2806 8.60456 13.4423 8.60456H14.8903ZM12.2714 11.4236C12.1559 11.3084 12.0139 11.2508 11.8452 11.2508C11.6767 11.2508 11.5346 11.3084 11.4191 11.4236C11.3037 11.5387 11.246 11.6792 11.246 11.845C11.246 12.0108 11.3037 12.1536 11.4191 12.2733L12.4653 13.3098C12.5808 13.4249 12.7217 13.4813 12.888 13.479C13.0543 13.4767 13.1951 13.418 13.3106 13.3028C13.4261 13.1877 13.4838 13.0461 13.4838 12.8779C13.4838 12.7098 13.4261 12.5682 13.3106 12.453L12.2714 11.4236ZM8.60624 13.4479C8.60624 13.2821 8.5462 13.1393 8.42611 13.0195C8.30602 12.8998 8.16282 12.8399 7.99652 12.8399C7.83486 12.8399 7.69398 12.8998 7.57389 13.0195C7.4538 13.1393 7.39376 13.2821 7.39376 13.4479V14.8989C7.39376 15.0601 7.4538 15.2006 7.57389 15.3204C7.69398 15.4401 7.83486 15.5 7.99652 15.5C8.16282 15.5 8.30602 15.4401 8.42611 15.3204C8.5462 15.2006 8.60624 15.0601 8.60624 14.8989V13.4479ZM2.68244 12.4461C2.56697 12.5612 2.50923 12.7029 2.50923 12.871C2.50923 13.0391 2.56466 13.1808 2.67552 13.2959C2.79099 13.4111 2.93418 13.4698 3.10508 13.4721C3.27598 13.4744 3.41916 13.418 3.53464 13.3028L4.56697 12.2733C4.68244 12.1582 4.74133 12.0166 4.74365 11.8484C4.74596 11.6803 4.68937 11.5387 4.5739 11.4236C4.45843 11.3084 4.31524 11.2508 4.14434 11.2508C3.97344 11.2508 3.83025 11.3084 3.71478 11.4236L2.68244 12.4461ZM1.10277 7.40234C0.941108 7.40234 0.80023 7.46107 0.680138 7.57854C0.560046 7.69598 0.5 7.83763 0.5 8.00347C0.5 8.16468 0.560046 8.30517 0.680138 8.42493C0.80023 8.54469 0.941108 8.60456 1.10277 8.60456H2.5508C2.71709 8.60456 2.86028 8.54469 2.98036 8.42493C3.10046 8.30517 3.16051 8.16468 3.16051 8.00347C3.16051 7.83763 3.10046 7.69598 2.98036 7.57854C2.86028 7.46107 2.71709 7.40234 2.5508 7.40234H1.10277ZM3.71478 4.59028C3.83025 4.70543 3.97228 4.76301 4.14088 4.76301C4.30947 4.76301 4.4515 4.70543 4.56697 4.59028C4.68244 4.47973 4.74133 4.33809 4.74365 4.16535C4.74596 3.99262 4.68937 3.85098 4.5739 3.74044L3.54157 2.70405C3.43071 2.5935 3.29099 2.53708 3.1224 2.53478C2.95381 2.53247 2.80947 2.58889 2.68938 2.70405C2.5739 2.81921 2.51617 2.96085 2.51617 3.12897C2.51617 3.2971 2.57159 3.43874 2.68244 3.55389L3.71478 4.59028Z"
        fill="currentColor" stroke="currentColor" strokeWidth="2" mask="url(#path-1-inside-1_85_13875)" />
</svg>