<svg width="16" height="16" viewBox="0 0 16 16" fill="none" xmlns="http://www.w3.org/2000/svg">
    <path
        d="M8.29183 15.5C9.3795 15.5 10.3869 15.3255 11.3141 14.9766C12.2412 14.6277 13.054 14.125 13.7524 13.4685C14.4507 12.8121 14.999 12.0196 15.3972 11.0911C15.4804 10.9018 15.5131 10.7348 15.4953 10.5898C15.4774 10.445 15.424 10.3282 15.3348 10.2395C15.2575 10.1626 15.1535 10.1167 15.0228 10.1019C14.892 10.0872 14.7494 10.1123 14.5949 10.1773C14.2561 10.3075 13.8801 10.4095 13.4671 10.4834C13.054 10.5573 12.5919 10.5943 12.0807 10.5943C10.7494 10.5943 9.59341 10.3341 8.61278 9.81361C7.63211 9.29322 6.87284 8.55693 6.33496 7.60475C5.79708 6.65257 5.52814 5.52594 5.52814 4.22486C5.52814 3.68669 5.5742 3.17217 5.66632 2.6813C5.75845 2.19044 5.87286 1.80306 6.00956 1.51919C6.18786 1.17026 6.18786 0.892301 6.00956 0.685307C5.92635 0.590683 5.81045 0.531543 5.66187 0.507888C5.51328 0.484227 5.33498 0.513796 5.12696 0.596593C4.21167 0.963265 3.40782 1.50736 2.71541 2.22888C2.023 2.95039 1.48066 3.79314 1.0884 4.75713C0.696133 5.7211 0.5 6.7531 0.5 7.8531C0.5 8.93537 0.688704 9.94075 1.06611 10.8693C1.44352 11.7978 1.97991 12.6081 2.67529 13.3C3.37067 13.9919 4.19384 14.5316 5.14479 14.919C6.09573 15.3063 7.14475 15.5 8.29183 15.5ZM8.30966 14.1516C7.35872 14.1516 6.48949 13.9904 5.70198 13.6681C4.91448 13.3458 4.23396 12.8949 3.66041 12.3152C3.08687 11.7357 2.64409 11.0571 2.33206 10.2793C2.02003 9.5017 1.86402 8.65746 1.86402 7.74664C1.86402 7.00739 1.97397 6.30067 2.19388 5.62649C2.41379 4.95229 2.72581 4.3328 3.12997 3.768C3.53412 3.20321 4.01256 2.71087 4.5653 2.29097C4.45238 2.58076 4.3662 2.93265 4.30676 3.34663C4.24733 3.76061 4.21762 4.18051 4.21762 4.60633C4.21762 6.0612 4.53262 7.33568 5.16262 8.42976C5.79262 9.52383 6.67225 10.3755 7.8015 10.9846C8.93075 11.5938 10.2443 11.8984 11.742 11.8984C12.1402 11.8984 12.5102 11.8762 12.8519 11.8318C13.1937 11.7875 13.4596 11.7328 13.6498 11.6677C13.2813 12.1823 12.8222 12.6243 12.2724 12.9939C11.7227 13.3636 11.1105 13.6489 10.4359 13.85C9.76134 14.051 9.05259 14.1516 8.30966 14.1516Z"
        fill="currentColor" />
</svg>