<svg width="16" height="17" viewBox="0 0 16 17" fill="none" xmlns="http://www.w3.org/2000/svg">
<g clip-path="url(#clip0_96_6110)">
<path d="M3.89804 9.17604H7.99215C8.14899 9.17604 8.27972 9.12378 8.38434 9.01926C8.48891 8.91474 8.54119 8.78408 8.54119 8.62728V3.34361C8.54119 3.19205 8.48891 3.06401 8.38434 2.95948C8.27972 2.85496 8.14899 2.8027 7.99215 2.8027C7.84051 2.8027 7.71241 2.85496 7.60784 2.95948C7.50326 3.06401 7.45097 3.19205 7.45097 3.34361V8.08639H3.89804C3.74117 8.08639 3.61045 8.13865 3.50587 8.24318C3.4013 8.34769 3.34901 8.47572 3.34901 8.62728C3.34901 8.78408 3.4013 8.91474 3.50587 9.01926C3.61045 9.12378 3.74117 9.17604 3.89804 9.17604Z" fill="#8D8D8D"/>
<path d="M7.99999 16.3255C9.09282 16.3255 10.1216 16.1165 11.0863 15.6983C12.051 15.2803 12.902 14.7028 13.6392 13.9659C14.3765 13.229 14.9542 12.3784 15.3725 11.4142C15.7908 10.45 16 9.42171 16 8.32941C16 7.23713 15.7908 6.20887 15.3725 5.24464C14.9542 4.28041 14.3765 3.42984 13.6392 2.69294C12.902 1.95605 12.0497 1.37855 11.0823 0.960458C10.115 0.542361 9.08496 0.333313 7.99215 0.333313C6.89934 0.333313 5.87058 0.542361 4.90588 0.960458C3.94117 1.37855 3.0915 1.95605 2.35686 2.69294C1.62222 3.42984 1.04575 4.28041 0.62745 5.24464C0.20915 6.20887 0 7.23713 0 8.32941C0 9.42171 0.20915 10.45 0.62745 11.4142C1.04575 12.3784 1.62353 13.229 2.36078 13.9659C3.09804 14.7028 3.94902 15.2803 4.91372 15.6983C5.87842 16.1165 6.90718 16.3255 7.99999 16.3255ZM7.99999 14.9928C7.0745 14.9928 6.20914 14.8204 5.40392 14.4754C4.59869 14.1305 3.8915 13.6536 3.28235 13.0448C2.6732 12.4359 2.19738 11.7291 1.8549 10.9243C1.51242 10.1194 1.34117 9.25447 1.34117 8.32941C1.34117 7.40437 1.51242 6.53943 1.8549 5.7346C2.19738 4.92976 2.67189 4.22161 3.27843 3.61014C3.88496 2.99868 4.59084 2.52178 5.39607 2.17947C6.2013 1.83715 7.06666 1.666 7.99215 1.666C8.91764 1.666 9.783 1.83715 10.5882 2.17947C11.3935 2.52178 12.102 2.99868 12.7137 3.61014C13.3255 4.22161 13.8039 4.92976 14.149 5.7346C14.4941 6.53943 14.6666 7.40437 14.6666 8.32941C14.6666 9.25447 14.4954 10.1194 14.1529 10.9243C13.8104 11.7291 13.3346 12.4359 12.7255 13.0448C12.1163 13.6536 11.4078 14.1305 10.6 14.4754C9.79216 14.8204 8.9255 14.9928 7.99999 14.9928Z" fill="#8D8D8D"/>
</g>
<defs>
<clipPath id="clip0_96_6110">
<rect width="16" height="16" fill="white" transform="translate(0 0.333313)"/>
</clipPath>
</defs>
</svg>
